<svg width="92" height="74" viewBox="0 0 92 74" fill="none" xmlns="http://www.w3.org/2000/svg">
<path d="M58.7053 20.2374H59.0178L58.8616 20.0811L69.7991 9.14363V8.90925C60.5803 0.784249 47.846 -2.02825 36.0491 1.48737C24.2522 5.003 15.1897 14.378 11.9085 26.253C12.0647 26.1749 12.2991 26.0968 12.5335 26.0968C16.596 23.4405 21.4397 21.878 26.5178 21.878C28.2366 21.878 29.8772 22.0343 31.5178 22.3468C31.596 22.2686 31.6741 22.2686 31.7522 22.2686C38.7835 14.5343 50.6585 13.5968 58.7835 20.2374H58.7053Z" fill="#EA4535"/>
<path d="M80.1897 26.0967C78.3928 19.4561 74.6428 13.4405 69.4085 8.83113L58.2366 19.9249C62.9241 23.753 65.6585 29.5343 65.5022 35.5499V37.503C78.7053 37.503 78.7053 57.1905 65.5022 57.1905H45.6585V72.8155H45.5803L45.6585 72.9718H65.5022C76.9085 73.0499 86.9866 65.7061 90.346 54.9249C93.7053 44.1436 89.5647 32.4249 80.1897 26.0967Z" fill="#557EBF"/>
<path d="M26.2053 73.0499H46.7522V57.2686H26.2053C24.721 57.2686 23.3147 56.9561 21.9866 56.4093L10.1116 67.8155V67.9718C14.7991 71.3311 20.4241 73.128 26.2835 73.128L26.2053 73.0499Z" fill="#36A852"/>
<path d="M27.1428 21.4874C15.5022 21.5655 5.18972 28.753 1.43972 39.2999C-2.31028 49.9249 1.43972 61.5655 10.6585 68.4405L22.846 56.7999C16.1272 53.9092 14.5647 45.4718 19.721 40.5499C24.8772 35.5499 33.6272 37.1124 36.6741 43.5186L48.8616 31.878C43.7053 25.3936 35.6585 21.5655 27.1428 21.6436V21.4874Z" fill="#F9BC15"/>
</svg>
