<svg width="180" height="59" viewBox="0 0 180 59" fill="none" xmlns="http://www.w3.org/2000/svg">
<g clip-path="url(#clip0_2084_1514)">
<path d="M174.393 36.0575L179.387 39.3829C177.766 41.7675 173.89 45.8589 167.188 45.8589C158.866 45.8589 152.668 39.4268 152.668 31.2445C152.668 22.5374 158.931 16.6304 166.487 16.6304C174.087 16.6304 177.81 22.6684 179.014 25.9281L179.671 27.591L160.092 35.6856C161.581 38.6174 163.903 40.105 167.188 40.105C170.473 40.105 172.751 38.486 174.393 36.0575ZM159.041 30.7855L172.116 25.3596C171.393 23.5439 169.247 22.2533 166.684 22.2533C163.421 22.2533 158.888 25.1411 159.041 30.7855Z" fill="#FF302F"/>
<path d="M143.229 1.73193H149.537V44.5245H143.229V1.73193Z" fill="#20B15A"/>
<path d="M133.286 17.7677H139.374V43.7582C139.374 54.5436 133.001 58.9848 125.467 58.9848C118.371 58.9848 114.101 54.2156 112.502 50.3434L118.087 48.0241C119.094 50.4087 121.525 53.2312 125.467 53.2312C130.307 53.2312 133.286 50.2338 133.286 44.6334V42.5333H133.067C131.621 44.2833 128.862 45.8583 125.358 45.8583C118.043 45.8583 111.341 39.492 111.341 31.2882C111.341 23.0401 118.043 16.6084 125.358 16.6084C128.84 16.6084 131.621 18.1617 133.067 19.8681H133.286V17.7677ZM133.723 31.2882C133.723 26.125 130.285 22.362 125.905 22.362C121.481 22.362 117.758 26.125 117.758 31.2882C117.758 36.3853 121.481 40.0827 125.905 40.0827C130.285 40.1048 133.724 36.3853 133.724 31.2882" fill="#3686F7"/>
<path d="M76.7162 31.1788C76.7162 39.6018 70.1462 45.7929 62.0866 45.7929C54.0274 45.7929 47.457 39.58 47.457 31.1788C47.457 22.7123 54.0274 16.543 62.0866 16.543C70.1462 16.543 76.7162 22.7123 76.7162 31.1788ZM70.3212 31.1788C70.3212 25.9285 66.5103 22.3183 62.0866 22.3183C57.6629 22.3183 53.8519 25.9285 53.8519 31.1788C53.8519 36.3856 57.6629 40.0394 62.0866 40.0394C66.5107 40.0394 70.3212 36.3856 70.3212 31.1788Z" fill="#FF302F"/>
<path d="M108.669 31.2445C108.669 39.6674 102.099 45.8585 94.0397 45.8585C85.9802 45.8585 79.4102 39.6671 79.4102 31.2445C79.4102 22.778 85.9802 16.6304 94.0397 16.6304C102.099 16.6304 108.669 22.7562 108.669 31.2445ZM102.252 31.2445C102.252 25.9942 98.4416 22.3839 94.0176 22.3839C89.5935 22.3839 85.7829 25.9942 85.7829 31.2445C85.7829 36.4512 89.5939 40.105 94.0176 40.105C98.4634 40.105 102.252 36.4294 102.252 31.2445Z" fill="#FFBA40"/>
<path d="M23.4107 39.4487C14.2342 39.4487 7.05109 32.0541 7.05109 22.8873C7.05109 13.7209 14.2342 6.32621 23.4107 6.32621C28.3604 6.32621 31.9737 8.27321 34.6456 10.7674L39.0479 6.37011C35.3248 2.80412 30.3534 0.0908203 23.4107 0.0908203C10.8399 0.0911715 0.261719 10.3301 0.261719 22.8873C0.261719 35.4445 10.8399 45.6838 23.4107 45.6838C30.2001 45.6838 35.3248 43.4523 39.3326 39.2956C43.4498 35.1825 44.72 29.4068 44.72 24.7251C44.72 23.2592 44.5449 21.7498 44.3477 20.6341H23.4107V26.716H38.325C37.887 30.5229 36.6825 33.1263 34.9086 34.898C32.7623 37.0642 29.3679 39.4487 23.4107 39.4487Z" fill="#3686F7"/>
</g>
<defs>
<clipPath id="clip0_2084_1514">
<rect width="180" height="59" fill="white"/>
</clipPath>
</defs>
</svg>
